<?xml version="1.0" standalone="no"?><!DOCTYPE svg PUBLIC "-//W3C//DTD SVG 1.1//EN" "http://www.w3.org/Graphics/SVG/1.1/DTD/svg11.dtd"><svg t="1609556229171" class="icon" viewBox="0 0 1024 1024" version="1.1" xmlns="http://www.w3.org/2000/svg" p-id="4869" xmlns:xlink="http://www.w3.org/1999/xlink" width="200" height="200"><defs><style type="text/css"></style></defs><path d="M896 225.28l-102.4 353.28L267.74016 637.71648 157.23008 225.27488 896 225.28zM304.02048 337.90976l47.4368 177.03424 354.87232-39.92064 39.74144-137.10848-442.05056-0.00512z" fill="#FF4E4E" p-id="4870"></path><path d="M247.77728 128l137.1904 512H814.08v112.64H298.53184L131.16416 128h116.61312z" fill="#FF4E4E" p-id="4871"></path><path d="M157.23008 225.27488l116.608-0.00512 108.34432 404.34176-114.44224 8.10496z" fill="#FF1F1F" p-id="4872"></path><path d="M721.92 839.68m-56.32 0a56.32 56.32 0 1 0 112.64 0 56.32 56.32 0 1 0-112.64 0Z" fill="#FF4E4E" p-id="4873"></path><path d="M353.28 839.68m-56.32 0a56.32 56.32 0 1 0 112.64 0 56.32 56.32 0 1 0-112.64 0Z" fill="#FF4E4E" p-id="4874"></path></svg>